<svg xmlns="http://www.w3.org/2000/svg" width="100%" height="100%" viewBox="0 0 24 24" fit="" preserveAspectRatio="xMidYMid meet" focusable="false">
    <path fill="#4A4A4A" fill-rule="evenodd" d="M11.995 0l-.633.012-1.526.123L8.95.27l-.755.18-.373.146-.277.153-.256.203-.215.248-.165.278-.118.286-.152.585-.21 1.756-.198 2.511-.167 3.778L6 14.684l.051 5.298.026.497.063.504.114.493.102.292.13.284.162.269.194.249.222.223.245.194.345.214.362.168.374.137.649.172.987.18.986.107.997.035 1.002-.037.986-.109.964-.176.489-.124.468-.158.45-.208.26-.158.247-.186.228-.214.2-.241.17-.266.14-.283.139-.389.094-.397.059-.396.095-5.804-.006-1.283-.078-3.856-.168-3.435-.134-1.719-.177-1.712-.14-.8-.128-.395-.14-.291-.187-.272-.234-.23-.264-.181-.28-.136L15.49.36 14.415.168 12.891.023 11.995 0zm-.86 22.967l-.862-.097-.862-.165-.552-.154-.303-.117-.289-.143-.27-.176-.346-.325-.142-.192-.22-.44-.17-.656-.052-.439L7 14.567l.03-2.886.114-3.598.143-2.393.217-2.364.066-.462.05-.246.152-.456.11-.201.14-.175.176-.144.196-.116.29-.119.31-.089 1.1-.192.788-.083L11.994 1l.79.022.791.063 1.101.163.616.153.426.187.182.128.156.161.125.193.1.217.098.325.067.346.207 1.977.12 1.631.087 1.631.097 2.86L17 14.73l-.027 3.665-.03 1.52-.074.65-.074.332-.107.32-.23.428-.147.19-.357.316-.563.306-.387.139-1.257.271-.862.1-.877.034-.872-.033z"></path>
</svg>