<svg xmlns="http://www.w3.org/2000/svg" xmlns:xlink="http://www.w3.org/1999/xlink" width="33" height="56" viewBox="0 0 33 56">
    <defs>
        <path id="b" d="M112.353 52.348l-2.038.36-2.05.215-2.085.073-2.07-.072-2.05-.214-2.053-.362-1.33-.344-.75-.265-.724-.33-.679-.408-.468-.364-.425-.416-.37-.462-.306-.5-.25-.532-.196-.551-.226-.954-.126-.976-.05-.98-.062-3.592-.037-3.6L94 34.476l.026-3.6.042-2.573.064-2.573.088-2.567.117-2.564.149-2.567.187-2.56.228-2.548.283-2.537.16-1.016.129-.568.173-.556.233-.533.314-.5.4-.435.47-.35.52-.275.727-.27.754-.198.764-.147 1.851-.27 1.864-.178 1.316-.069L106.18 5l1.872.046 1.867.14 1.309.154 1.304.2.925.187.581.155.568.2.541.258.493.332.425.414.335.48.255.528.244.746.164.77.113.778.374 3.478.28 3.494.207 3.493.147 3.5.078 2.62.054 2.62.032 2.617.013 2.616-.005 2.617-.02 2.615-.035 2.607-.048 2.6-.029.683-.06.68-.122.78-.19.766-.275.738-.272.524-.331.49-.388.448-.436.393-.48.344-.51.296-.901.4-.943.307-.962.234"/>
        <filter id="a" width="157.5%" height="129.2%" x="-28.7%" y="-10.4%" filterUnits="objectBoundingBox">
            <feOffset dy="2" in="SourceAlpha" result="shadowOffsetOuter1"/>
            <feGaussianBlur in="shadowOffsetOuter1" result="shadowBlurOuter1" stdDeviation="2"/>
            <feColorMatrix in="shadowBlurOuter1" values="0 0 0 0 0 0 0 0 0 0 0 0 0 0 0 0 0 0 0.5 0"/>
        </filter>
    </defs>
    <g fill="none" fill-rule="evenodd" transform="translate(-90 -3)">
        <use fill="#000" filter="url(#a)" xlink:href="#b"/>
        <use fill="#FFF" xlink:href="#b"/>
    </g>
</svg>
