<svg xmlns="http://www.w3.org/2000/svg" viewBox="0 0 24 24" width="100%" height="100%" fit="" preserveAspectRatio="xMidYMid meet" focusable="false">
    <path fill="#4a4a4a" fill-rule="evenodd" d="M19.1,6.8h-3.7V4c0-0.3-0.3-0.6-0.6-0.6H9.3C8.9,3.4,8.6,3.6,8.6,4v2.8H4.9c-1.1,0-2,0.9-2,2v8.9c0,1.1,0.9,2,2,2h14.1
	c1.1,0,2-0.9,2-2V8.8C21,7.7,20.2,6.8,19.1,6.8z M9.3,4h5.5v2.8H9.3V4z M20.4,17.7c0,0.7-0.6,1.3-1.3,1.3H4.9
	c-0.7,0-1.3-0.6-1.3-1.3V8.8c0-0.7,0.6-1.3,1.3-1.3h14.1c0.7,0,1.3,0.6,1.3,1.3V17.7z"></path>
</svg>