<svg xmlns="http://www.w3.org/2000/svg" width="100%" height="100%" viewBox="0 0 24 24" fit="" preserveAspectRatio="xMidYMid meet" focusable="false">
    <path fill="#fff" fill-rule="evenodd" d="M3.943,21 C3.423,21 3,20.5775294 3,20.0576471 L3,3.94235294 C3,3.42352941 3.422,3 3.943,3 L20.057,3 C20.577,3 21,3.42247059 21,3.94235294 L21,20.0576471 C21,20.5775294 20.578,21 20.057,21 L3.943,21 Z M7,6 C7,5.44771525 6.55228475,5 6,5 C5.44771525,5 5,5.44771525 5,6 C5,6.55228475 5.44771525,7 6,7 C6.55228475,7 7,6.55228475 7,6 Z"></path>
</svg>