<svg xmlns="http://www.w3.org/2000/svg" width="20" height="24" viewBox="0 0 20 24">
    <path fill="#17384c" fill-rule="evenodd" d="M8.43 9.907C7.412 9.425 6.706 8.36 6.706 7.124c0-1.69 1.317-3.057 2.942-3.057 1.625 0 2.94 1.367 2.94 3.057 0 .986-.448 1.862-1.144 2.421V22.01c0 .676-.675 1.228-1.508 1.228-.83 0-1.508-.552-1.508-1.228V9.907zM5.84 11.653a.573.573 0 0 1-.396-.154c-1.242-1.184-1.924-2.74-1.924-4.375 0-1.729.753-3.349 2.126-4.56a.588.588 0 0 1 .756 0c.21.185.21.485 0 .673-1.166 1.029-1.806 2.41-1.806 3.887 0 1.398.581 2.723 1.64 3.731.2.19.186.49-.03.669a.585.585 0 0 1-.366.129zm7.889.104a.597.597 0 0 1-.383-.134.431.431 0 0 1-.014-.671c1.15-1.02 1.784-2.383 1.784-3.828 0-1.449-.633-2.806-1.784-3.825a.433.433 0 0 1 .011-.671.613.613 0 0 1 .783.007c1.347 1.2 2.092 2.792 2.092 4.49 0 1.694-.742 3.287-2.092 4.486a.614.614 0 0 1-.397.146zM3.398 14.142a.718.718 0 0 1-.529-.228C1.164 12.084.222 9.671.222 7.124c0-2.606.978-5.054 2.753-6.902A.72.72 0 0 1 3.998.205c.287.28.295.743.017 1.033-1.51 1.576-2.343 3.666-2.343 5.886 0 2.175.8 4.234 2.252 5.79a.732.732 0 0 1-.03 1.03.705.705 0 0 1-.496.198zm12.402.104a.711.711 0 0 1-.504-.206.735.735 0 0 1-.014-1.033c1.511-1.568 2.342-3.659 2.342-5.883 0-2.225-.833-4.316-2.342-5.886a.735.735 0 0 1 .014-1.03.72.72 0 0 1 1.025.014c1.775 1.846 2.753 4.296 2.753 6.902 0 2.608-.978 5.058-2.753 6.902a.717.717 0 0 1-.52.22z"/>
</svg>
