<?xml version="1.0" encoding="utf-8"?>
<!-- Svg Vector Icons : http://www.onlinewebfonts.com/icon -->
<!DOCTYPE svg PUBLIC "-//W3C//DTD SVG 1.1//EN" "http://www.w3.org/Graphics/SVG/1.1/DTD/svg11.dtd">
<svg version="1.1" xmlns="http://www.w3.org/2000/svg" xmlns:xlink="http://www.w3.org/1999/xlink" x="0px" y="0px" viewBox="0 0 1000 1000" enable-background="new 0 0 1000 1000" xml:space="preserve">
<metadata> Svg Vector Icons : http://www.onlinewebfonts.com/icon </metadata>
<g><g transform="translate(0.000000,511.000000) scale(0.100000,-0.100000)"><path d="M3533.6,4956.5c-297.8-102.3-541.5-373-604.7-664.9c-21.1-99.3-33.1-749.1-33.1-1868.2V705.6l-96.3,27.1c-433.2,108.3-875.4-105.3-1065-511.4l-72.2-156.5v-1504.2c0-1660.6,3-1699.8,192.5-2099.9c204.6-442.3,568.6-818.3,992.8-1025.9c427.2-207.5,418.2-207.5,2018.7-222.6c1013.8-6.1,1510.2,0,1669.7,24c830.3,129.4,1519.3,749.1,1744.9,1570.4c60.2,219.6,60.2,285.8,54.1,2042.7c-9,1684.7-12,1826.1-63.2,1925.4c-198.6,403.1-667.9,628.8-1034.9,499.4l-126.4-42.1l-78.2,156.4c-87.3,177.5-249.7,339.9-442.2,439.2c-138.4,72.2-400.1,93.3-598.7,48.1c-108.3-27.1-111.3-24.1-147.4,81.2c-51.2,156.4-279.8,394.1-463.3,484.4c-171.5,84.2-373,108.3-565.6,66.2l-108.3-24.1l-12,896.5l-9,896.5l-99.3,204.6c-120.3,240.7-318.9,418.2-553.6,487.4C3834.5,5025.7,3729.2,5025.7,3533.6,4956.5z M4045.1,4384.9l99.3-87.2l6-1380.9c9-2924.2,0-2590.3,84.2-2671.5c102.3-105.3,279.8-102.3,379.1,3c72.2,78.2,72.2,78.2,81.2,857.4l9,782.2l96.3,57.2c186.5,114.3,508.4,39.1,547.5-126.4c9-39.1,18-391.1,21.1-782.2c9-707,9-713,81.2-788.2c99.3-105.3,276.7-108.3,379.1-3c72.2,69.2,75.2,84.2,75.2,511.4V1199l87.3,87.2c72.2,69.2,114.3,87.2,225.6,87.2c75.2,0,171.5-15,213.6-36.1c147.4-66.2,159.4-135.4,159.4-887.5c0-710,12-788.2,123.4-872.4c90.3-69.2,240.7-45.1,336.9,48.1l87.3,87.3v469.3v466.3l78.2,60.2c57.2,45.1,123.4,63.2,228.7,63.2c210.6,0,315.9-63.2,355-213.6c24.1-84.2,30.1-661.9,24.1-1841.1c-9-1711.8-9-1720.9-78.2-1916.4c-150.4-418.2-409.2-713-770.2-887.5c-349-165.5-424.2-171.5-2078.8-159.4c-1453.1,9-1510.2,12-1675.7,75.2c-490.4,186.5-809.3,523.4-974.7,1031.9c-48.1,147.4-54.1,327.9-66.2,1549.3c-6,761.2-3,1441.1,9,1516.3c12,87.3,48.1,162.5,105.3,219.6c72.2,72.2,108.3,84.2,252.7,84.2c132.4,0,183.5-15,249.7-72.2l84.2-72.2l15-815.3c15-770.2,18.1-818.3,78.2-875.5c33.1-33.1,111.3-69.2,171.5-81.2c93.3-15,120.3-3,201.6,75.2l90.2,90.3v2885.1c3,2334.5,9,2897.1,42.1,2954.3c57.2,102.3,162.5,150.4,324.9,153.4C3921.7,4472.1,3966.8,4457.1,4045.1,4384.9z"/></g></g>
</svg>