<svg width="220" height="40" viewBox="0 0 220 40" fill="none" xmlns="http://www.w3.org/2000/svg">
<path d="M15.727 30.9998L10.799 22.2957H8.68703V30.9998H4.20703V8.66375H12.591C14.319 8.66375 15.791 8.97308 17.007 9.59175C18.223 10.1891 19.1297 11.0104 19.727 12.0557C20.3457 13.0797 20.655 14.2318 20.655 15.5118C20.655 16.9838 20.2283 18.317 19.375 19.5117C18.5217 20.685 17.2523 21.4958 15.567 21.9438L20.911 30.9998H15.727ZM8.68703 18.9358H12.431C13.647 18.9358 14.5537 18.6478 15.151 18.0718C15.7483 17.4745 16.047 16.653 16.047 15.6077C16.047 14.5837 15.7483 13.7944 15.151 13.2397C14.5537 12.6637 13.647 12.3758 12.431 12.3758H8.68703V18.9358ZM29.187 12.2797V17.8797H36.707V21.4317H29.187V27.3517H37.667V30.9998H24.707V8.63175H37.667V12.2797H29.187ZM40.6503 19.7997C40.6503 17.6024 41.1409 15.6397 42.1223 13.9117C43.1249 12.1624 44.4796 10.8077 46.1863 9.84775C47.9143 8.86642 49.8449 8.37575 51.9783 8.37575C54.4743 8.37575 56.6609 9.01575 58.5383 10.2957C60.4156 11.5757 61.7276 13.3464 62.4743 15.6077H57.3223C56.8103 14.541 56.0849 13.7411 55.1463 13.2078C54.2289 12.6745 53.1623 12.4078 51.9463 12.4078C50.6449 12.4078 49.4823 12.7171 48.4583 13.3358C47.4556 13.9331 46.6663 14.7865 46.0903 15.8958C45.5356 17.0051 45.2583 18.3064 45.2583 19.7997C45.2583 21.2717 45.5356 22.5731 46.0903 23.7038C46.6663 24.8131 47.4556 25.677 48.4583 26.2957C49.4823 26.893 50.6449 27.1917 51.9463 27.1917C53.1623 27.1917 54.2289 26.9251 55.1463 26.3918C56.0849 25.8371 56.8103 25.0264 57.3223 23.9597H62.4743C61.7276 26.2424 60.4156 28.0238 58.5383 29.3038C56.6823 30.5625 54.4956 31.1917 51.9783 31.1917C49.8449 31.1917 47.9143 30.7118 46.1863 29.7518C44.4796 28.7705 43.1249 27.4157 42.1223 25.6877C41.1409 23.9597 40.6503 21.997 40.6503 19.7997ZM79.9968 26.7437H71.1008L69.6288 30.9998H64.9248L72.9568 8.63175H78.1728L86.2048 30.9998H81.4688L79.9968 26.7437ZM78.7808 23.1597L75.5488 13.8158L72.3167 23.1597H78.7808ZM96.919 31.2238C95.3617 31.2238 93.9537 30.957 92.695 30.4237C91.4577 29.8904 90.4763 29.1225 89.751 28.1198C89.0257 27.1171 88.6523 25.9331 88.631 24.5678H93.431C93.495 25.4851 93.815 26.2104 94.391 26.7437C94.9883 27.277 95.799 27.5438 96.823 27.5438C97.8683 27.5438 98.6897 27.2985 99.287 26.8078C99.8843 26.2958 100.183 25.6344 100.183 24.8237C100.183 24.1624 99.9803 23.6184 99.575 23.1917C99.1697 22.765 98.6577 22.4345 98.039 22.1998C97.4417 21.9438 96.6097 21.6665 95.543 21.3678C94.0923 20.9411 92.9083 20.5251 91.991 20.1198C91.095 19.6931 90.3163 19.0638 89.655 18.2318C89.015 17.3785 88.695 16.2478 88.695 14.8398C88.695 13.5171 89.0257 12.365 89.687 11.3837C90.3483 10.4024 91.2763 9.65575 92.471 9.14375C93.6657 8.61042 95.031 8.34375 96.567 8.34375C98.871 8.34375 100.738 8.90908 102.167 10.0398C103.618 11.1491 104.418 12.7064 104.567 14.7118H99.639C99.5963 13.9438 99.2657 13.3145 98.647 12.8238C98.0497 12.3118 97.2497 12.0557 96.247 12.0557C95.3723 12.0557 94.6683 12.2797 94.135 12.7277C93.623 13.1757 93.367 13.8265 93.367 14.6798C93.367 15.2771 93.559 15.7785 93.943 16.1838C94.3483 16.5678 94.839 16.8877 95.415 17.1437C96.0123 17.3784 96.8443 17.6557 97.911 17.9757C99.3617 18.4024 100.546 18.8291 101.463 19.2558C102.38 19.6825 103.17 20.3225 103.831 21.1758C104.492 22.0291 104.823 23.149 104.823 24.5357C104.823 25.7304 104.514 26.8398 103.895 27.8638C103.276 28.8878 102.37 29.709 101.175 30.3277C99.9803 30.925 98.5617 31.2238 96.919 31.2238ZM119.075 31.2238C116.984 31.2238 115.064 30.7331 113.315 29.7518C111.566 28.7705 110.179 27.4157 109.155 25.6877C108.131 23.9384 107.619 21.965 107.619 19.7677C107.619 17.5917 108.131 15.6397 109.155 13.9117C110.179 12.1624 111.566 10.7971 113.315 9.81575C115.064 8.83442 116.984 8.34375 119.075 8.34375C121.187 8.34375 123.107 8.83442 124.835 9.81575C126.584 10.7971 127.96 12.1624 128.963 13.9117C129.987 15.6397 130.499 17.5917 130.499 19.7677C130.499 21.965 129.987 23.9384 128.963 25.6877C127.96 27.4157 126.584 28.7705 124.835 29.7518C123.086 30.7331 121.166 31.2238 119.075 31.2238ZM119.075 27.2238C120.419 27.2238 121.603 26.925 122.627 26.3277C123.651 25.709 124.451 24.8345 125.027 23.7038C125.603 22.5731 125.891 21.261 125.891 19.7677C125.891 18.2744 125.603 16.9731 125.027 15.8638C124.451 14.7331 123.651 13.8691 122.627 13.2718C121.603 12.6745 120.419 12.3758 119.075 12.3758C117.731 12.3758 116.536 12.6745 115.491 13.2718C114.467 13.8691 113.667 14.7331 113.091 15.8638C112.515 16.9731 112.227 18.2744 112.227 19.7677C112.227 21.261 112.515 22.5731 113.091 23.7038C113.667 24.8345 114.467 25.709 115.491 26.3277C116.536 26.925 117.731 27.2238 119.075 27.2238ZM147.624 8.66375V12.2797H138.312V18.0077H145.448V21.5597H138.312V30.9998H133.832V8.66375H147.624ZM166.001 8.66375V12.2797H160.049V30.9998H155.569V12.2797H149.617V8.66375H166.001ZM190.591 26.7437H181.695L180.223 30.9998H175.519L183.551 8.63175H188.767L196.799 30.9998H192.063L190.591 26.7437ZM189.375 23.1597L186.143 13.8158L182.91 23.1597H189.375ZM207.513 31.2238C205.955 31.2238 204.547 30.957 203.289 30.4237C202.051 29.8904 201.07 29.1225 200.345 28.1198C199.619 27.1171 199.246 25.9331 199.225 24.5678H204.025C204.089 25.4851 204.409 26.2104 204.985 26.7437C205.582 27.277 206.393 27.5438 207.417 27.5438C208.462 27.5438 209.283 27.2985 209.881 26.8078C210.478 26.2958 210.777 25.6344 210.777 24.8237C210.777 24.1624 210.574 23.6184 210.169 23.1917C209.763 22.765 209.251 22.4345 208.633 22.1998C208.035 21.9438 207.203 21.6665 206.137 21.3678C204.686 20.9411 203.502 20.5251 202.585 20.1198C201.689 19.6931 200.91 19.0638 200.249 18.2318C199.609 17.3785 199.289 16.2478 199.289 14.8398C199.289 13.5171 199.619 12.365 200.281 11.3837C200.942 10.4024 201.87 9.65575 203.065 9.14375C204.259 8.61042 205.625 8.34375 207.161 8.34375C209.465 8.34375 211.331 8.90908 212.761 10.0398C214.211 11.1491 215.011 12.7064 215.161 14.7118H210.233C210.19 13.9438 209.859 13.3145 209.241 12.8238C208.643 12.3118 207.843 12.0557 206.841 12.0557C205.966 12.0557 205.262 12.2797 204.729 12.7277C204.217 13.1757 203.961 13.8265 203.961 14.6798C203.961 15.2771 204.153 15.7785 204.537 16.1838C204.942 16.5678 205.433 16.8877 206.009 17.1437C206.606 17.3784 207.438 17.6557 208.505 17.9757C209.955 18.4024 211.139 18.8291 212.057 19.2558C212.974 19.6825 213.763 20.3225 214.425 21.1758C215.086 22.0291 215.417 23.149 215.417 24.5357C215.417 25.7304 215.107 26.8398 214.489 27.8638C213.87 28.8878 212.963 29.709 211.769 30.3277C210.574 30.925 209.155 31.2238 207.513 31.2238Z" fill="white"/>
</svg>
