<svg width="300" height="100" viewBox="0 0 300 100" fill="none" xmlns="http://www.w3.org/2000/svg">
<path d="M17.7323 37.3681V54.5198H5V7.38672H20.4385C33.2487 7.38672 39.6538 12.0348 39.6538 21.3261C39.6538 26.7773 36.9866 30.997 31.6523 33.9806L45.3775 54.5198H30.9319L20.9446 37.3681H17.7323ZM17.7323 27.7896H20.1075C24.556 27.7896 26.7852 25.8233 26.7852 21.8907C26.7852 18.6492 24.6047 17.0236 20.2438 17.0236H17.7323V27.7896Z" fill="black"/>
<path d="M66.562 55.1627C60.4879 55.1627 55.7619 53.5468 52.389 50.315C49.0258 47.0833 47.3467 42.479 47.3467 36.4924C47.3467 30.3307 48.9042 25.5999 52.0191 22.3C55.1438 19.0049 59.5972 17.355 65.3744 17.355C70.8743 17.355 75.1281 18.7908 78.1263 21.6575C81.1244 24.5291 82.6235 28.6613 82.6235 34.0589V39.6658H60.079C60.1666 41.7051 60.9162 43.3064 62.3179 44.4745C63.7294 45.6329 65.6519 46.2072 68.0805 46.2072C70.2999 46.2072 72.3344 46.0028 74.1936 45.5842C76.048 45.1559 78.0581 44.4356 80.2288 43.4232V52.4955C78.2528 53.5078 76.2086 54.2038 74.0963 54.5786C71.9937 54.968 69.4823 55.1627 66.562 55.1627ZM65.8222 25.9211C64.3426 25.9211 63.1015 26.3883 62.1037 27.3228C61.1011 28.2573 60.5171 29.7272 60.3516 31.7227H71.176C71.1371 29.9705 70.6358 28.5688 69.677 27.5175C68.7133 26.4565 67.4284 25.9211 65.8222 25.9211Z" fill="black"/>
<path d="M106.382 55.1627C100.41 55.1627 95.8784 53.5565 92.7927 50.3345C89.7021 47.1027 88.1592 42.4692 88.1592 36.434C88.1592 30.3745 89.8237 25.6826 93.1626 22.3584C96.4965 19.0244 101.232 17.355 107.375 17.355C111.604 17.355 115.595 18.2797 119.348 20.1195L115.629 29.4449C114.111 28.7732 112.699 28.2378 111.404 27.8485C110.12 27.4494 108.776 27.2449 107.375 27.2449C105.335 27.2449 103.758 28.0431 102.644 29.6396C101.524 31.2262 100.969 33.47 100.969 36.3756C100.969 42.2162 103.13 45.1364 107.452 45.1364C111.137 45.1364 114.68 44.0657 118.082 41.9241V51.9504C114.836 54.0919 110.937 55.1627 106.382 55.1627Z" fill="black"/>
<path d="M149.156 54.5202L146.742 49.692H146.489C144.785 51.7946 143.053 53.2353 141.291 54.014C139.524 54.7781 137.246 55.1627 134.457 55.1627C131.016 55.1627 128.31 54.1308 126.339 52.0672C124.363 50.0035 123.38 47.1027 123.38 43.3648C123.38 39.4711 124.728 36.58 127.429 34.6819C130.14 32.774 134.068 31.7032 139.208 31.4696L145.282 31.2749V30.7687C145.282 27.7609 143.802 26.252 140.843 26.252C138.181 26.252 134.793 27.1573 130.681 28.9582L127.04 20.6451C131.294 18.4549 136.667 17.355 143.16 17.355C147.842 17.355 151.473 18.5182 154.043 20.8398C156.612 23.1663 157.897 26.4078 157.897 30.574V54.5202H149.156ZM139.811 46.2656C141.34 46.2656 142.644 45.7886 143.724 44.8249C144.815 43.8515 145.36 42.5958 145.36 41.048V38.2057L142.459 38.3419C138.302 38.4879 136.229 40.0114 136.229 42.917C136.229 45.151 137.421 46.2656 139.811 46.2656Z" fill="black"/>
<path d="M194.675 43.3064C194.675 47.2147 193.341 50.169 190.684 52.1645C188.022 54.1649 184.201 55.1627 179.217 55.1627C176.501 55.1627 174.145 55.0118 172.15 54.7149C170.15 54.4326 168.105 53.9069 166.017 53.1379V43.0533C167.974 43.9099 170.115 44.6205 172.442 45.1754C174.778 45.7351 176.861 46.0125 178.691 46.0125C181.417 46.0125 182.78 45.3895 182.78 44.1435C182.78 43.4962 182.395 42.917 181.631 42.4108C180.877 41.9047 178.662 40.9264 174.992 39.4711C171.629 38.0986 169.278 36.5314 167.945 34.7792C166.621 33.0271 165.959 30.8077 165.959 28.121C165.959 24.7238 167.268 22.0809 169.892 20.1974C172.51 18.3041 176.219 17.355 181.008 17.355C183.422 17.355 185.685 17.6227 187.803 18.1532C189.915 18.674 192.11 19.4381 194.383 20.4505L190.976 28.5688C189.302 27.8193 187.53 27.1817 185.661 26.6609C183.792 26.1304 182.264 25.8627 181.086 25.8627C179.022 25.8627 177.99 26.3689 177.99 27.3812C177.99 28.0042 178.346 28.5396 179.061 28.9776C179.786 29.4205 181.865 30.3161 185.291 31.6643C187.861 32.7156 189.769 33.7474 191.015 34.7597C192.271 35.7721 193.195 36.9597 193.779 38.3225C194.373 39.6853 194.675 41.3498 194.675 43.3064Z" fill="black"/>
<path d="M236.554 36.1809C236.554 42.1529 234.943 46.8107 231.726 50.1593C228.519 53.4981 224.026 55.1627 218.254 55.1627C212.696 55.1627 208.276 53.4592 204.996 50.0425C201.725 46.6306 200.09 42.0117 200.09 36.1809C200.09 30.2236 201.691 25.5999 204.899 22.3C208.116 19.0049 212.632 17.355 218.449 17.355C222.031 17.355 225.194 18.124 227.949 19.6523C230.699 21.1708 232.821 23.361 234.315 26.2131C235.805 29.0555 236.554 32.3797 236.554 36.1809ZM212.9 36.1809C212.9 39.3251 213.314 41.7197 214.146 43.3648C214.988 45.0001 216.395 45.8178 218.371 45.8178C220.327 45.8178 221.71 45.0001 222.517 43.3648C223.321 41.7197 223.725 39.3251 223.725 36.1809C223.725 33.066 223.316 30.7201 222.498 29.1334C221.68 27.537 220.283 26.7388 218.312 26.7388C216.375 26.7388 214.988 27.5321 214.146 29.1139C213.314 30.686 212.9 33.0417 212.9 36.1809Z" fill="black"/>
<path d="M266.05 27.44H258.282V54.5206H245.686V27.44H240.857V21.249L245.939 18.1535V17.55C245.939 12.7365 246.917 9.27594 248.878 7.17335C250.85 5.06103 254.008 4 258.36 4C260.034 4 261.616 4.13141 263.11 4.38937C264.599 4.65219 266.332 5.10483 268.308 5.75216L265.602 13.9094C264.054 13.4811 262.545 13.267 261.066 13.267C260.092 13.267 259.382 13.5687 258.944 14.1625C258.501 14.7466 258.282 15.7005 258.282 17.0244V17.9978H266.05V27.44Z" fill="black"/>
<path d="M288.905 45.1943C290.604 45.1943 292.634 44.7806 294.999 43.9483V53.1374C293.31 53.8674 291.694 54.3834 290.151 54.6949C288.618 55.0063 286.822 55.1621 284.759 55.1621C280.524 55.1621 277.477 54.1303 275.609 52.0666C273.74 49.9932 272.805 46.8004 272.805 42.4882V27.4391H268.386V22.3189L273.993 18.3473L277.244 10.6768H285.498V17.9969H294.454V27.4391H285.498V41.651C285.498 44.0164 286.633 45.1943 288.905 45.1943Z" fill="black"/>
<path d="M15.9893 96.6254H14.5876V78.0915H8.14355V76.7871H22.4334V78.0915H15.9893V96.6254Z" fill="black"/>
<path d="M43.4347 96.6254H32.5908V76.7871H43.4347V78.0526H33.9731V85.5674H42.9091V86.8328H33.9731V95.3405H43.4347V96.6254Z" fill="black"/>
<path d="M63.6089 77.7406C61.1267 77.7406 59.1701 78.5388 57.7295 80.1352C56.2985 81.7316 55.5879 83.9121 55.5879 86.6766C55.5879 89.5093 56.2596 91.7092 57.6127 93.2764C58.9608 94.8339 60.8882 95.6126 63.3948 95.6126C65.0691 95.6126 66.5973 95.4082 67.9893 94.9896V96.1967C66.6752 96.6639 65.0399 96.8975 63.0833 96.8975C60.2896 96.8975 58.0896 95.9971 56.4835 94.1914C54.8871 92.3906 54.0889 89.8792 54.0889 86.6571C54.0889 84.6324 54.4685 82.8559 55.2375 81.3228C56.0016 79.7799 57.0967 78.5924 58.5277 77.7601C59.9683 76.9181 61.6329 76.4946 63.5311 76.4946C65.4633 76.4946 67.196 76.8597 68.7291 77.5849L68.184 78.8308C66.7287 78.1056 65.2053 77.7406 63.6089 77.7406Z" fill="black"/>
<path d="M94.0112 96.6254H92.6095V86.8718H81.0063V96.6254H79.624V76.7871H81.0063V85.5868H92.6095V76.7871H94.0112V96.6254Z" fill="black"/>
<path d="M121.278 96.6254H119.876L108.117 79.0065H108C108.117 81.1091 108.175 82.6958 108.175 83.7568V96.6254H106.832V76.7871H108.214L119.973 94.3671H120.051C119.959 92.7463 119.915 91.2035 119.915 89.7336V76.7871H121.278V96.6254Z" fill="black"/>
<path d="M150.775 86.6766C150.775 89.8304 149.986 92.3224 148.419 94.1524C146.847 95.9825 144.671 96.8975 141.897 96.8975C139.142 96.8975 136.977 95.9825 135.395 94.1524C133.823 92.3224 133.039 89.8256 133.039 86.6571C133.039 83.4935 133.828 81.0064 135.414 79.2007C137.011 77.3852 139.181 76.4751 141.936 76.4751C144.701 76.4751 146.862 77.3901 148.419 79.2201C149.986 81.0404 150.775 83.5227 150.775 86.6766ZM134.538 86.6766C134.538 89.5189 135.171 91.7189 136.446 93.2763C137.716 94.8241 139.532 95.5931 141.897 95.5931C144.282 95.5931 146.107 94.829 147.368 93.2958C148.638 91.7529 149.276 89.5481 149.276 86.6766C149.276 83.8244 148.638 81.6342 147.368 80.1157C146.107 78.5874 144.297 77.8184 141.936 77.8184C139.571 77.8184 137.75 78.5923 136.466 80.1352C135.181 81.6683 134.538 83.8488 134.538 86.6766Z" fill="black"/>
<path d="M162.551 96.6254V76.7871H163.933V95.321H173.395V96.6254H162.551Z" fill="black"/>
<path d="M200.717 86.6766C200.717 89.8304 199.929 92.3224 198.361 94.1524C196.789 95.9825 194.614 96.8975 191.84 96.8975C189.085 96.8975 186.919 95.9825 185.337 94.1524C183.765 92.3224 182.981 89.8256 182.981 86.6571C182.981 83.4935 183.77 81.0064 185.357 79.2007C186.953 77.3852 189.124 76.4751 191.879 76.4751C194.643 76.4751 196.804 77.3901 198.361 79.2201C199.929 81.0404 200.717 83.5227 200.717 86.6766ZM184.481 86.6766C184.481 89.5189 185.113 91.7189 186.388 93.2763C187.659 94.8241 189.474 95.5931 191.84 95.5931C194.224 95.5931 196.05 94.829 197.31 93.2958C198.581 91.7529 199.218 89.5481 199.218 86.6766C199.218 83.8244 198.581 81.6342 197.31 80.1157C196.05 78.5874 194.239 77.8184 191.879 77.8184C189.513 77.8184 187.693 78.5923 186.408 80.1352C185.123 81.6683 184.481 83.8488 184.481 86.6766Z" fill="black"/>
<path d="M220.29 86.6181H227.61V95.671C225.687 96.4886 223.526 96.8975 221.127 96.8975C217.997 96.8975 215.598 96.0165 213.924 94.2498C212.259 92.4733 211.432 89.9667 211.432 86.735C211.432 84.7102 211.845 82.9191 212.678 81.3617C213.505 79.8042 214.688 78.6069 216.221 77.76C217.764 76.9034 219.535 76.4751 221.536 76.4751C223.702 76.4751 225.648 76.8742 227.376 77.6627L226.812 78.9087C225.084 78.1202 223.298 77.7211 221.458 77.7211C218.849 77.7211 216.771 78.5339 215.228 80.1546C213.695 81.7656 212.931 83.9412 212.931 86.6766C212.931 89.665 213.656 91.9087 215.111 93.4126C216.576 94.9214 218.718 95.671 221.536 95.671C223.366 95.671 224.923 95.413 226.208 94.8922V87.9225H220.29V86.6181Z" fill="black"/>
<path d="M239.802 96.6254V76.7871H241.184V96.6254H239.802Z" fill="black"/>
<path d="M264.865 96.6254H254.021V76.7871H264.865V78.0526H255.404V85.5674H264.34V86.8328H255.404V95.3405H264.865V96.6254Z" fill="black"/>
<path d="M287.537 91.5048C287.537 93.1693 286.923 94.4835 285.707 95.4569C284.485 96.4206 282.869 96.8975 280.859 96.8975C278.43 96.8975 276.566 96.6298 275.271 96.0993V94.7171C276.712 95.3157 278.532 95.6126 280.742 95.6126C282.377 95.6126 283.667 95.2427 284.616 94.5029C285.575 93.7534 286.057 92.7702 286.057 91.5632C286.057 90.8137 285.892 90.1907 285.57 89.6942C285.259 89.2026 284.743 88.7549 284.032 88.3509C283.317 87.9372 282.266 87.4943 280.878 87.027C278.854 86.3262 277.452 85.5766 276.673 84.7687C275.904 83.9656 275.525 82.89 275.525 81.5369C275.525 80.0476 276.099 78.8308 277.257 77.8964C278.425 76.9619 279.924 76.4946 281.754 76.4946C283.623 76.4946 285.376 76.8451 287.011 77.5459L286.505 78.753C284.855 78.0667 283.278 77.7211 281.774 77.7211C280.304 77.7211 279.136 78.0618 278.27 78.7335C277.413 79.41 276.985 80.3299 276.985 81.498C276.985 82.2378 277.111 82.8413 277.374 83.3086C277.647 83.7758 278.08 84.1993 278.678 84.574C279.287 84.9537 280.333 85.4063 281.813 85.9368C283.356 86.4722 284.519 86.9881 285.298 87.4943C286.076 87.9907 286.641 88.5553 286.991 89.188C287.352 89.8256 287.537 90.5995 287.537 91.5048Z" fill="black"/>
</svg>
