<svg width="220" height="40" viewBox="0 0 220 40" fill="none" xmlns="http://www.w3.org/2000/svg">
<g clip-path="url(#clip0_976_8)">
<path d="M15.728 31L10.8 22.296H8.688V31H4.208V8.664H12.592C14.32 8.664 15.792 8.97333 17.008 9.592C18.224 10.1893 19.1307 11.0107 19.728 12.056C20.3467 13.08 20.656 14.232 20.656 15.512C20.656 16.984 20.2293 18.3173 19.376 19.512C18.5227 20.6853 17.2533 21.496 15.568 21.944L20.912 31H15.728ZM8.688 18.936H12.432C13.648 18.936 14.5547 18.648 15.152 18.072C15.7493 17.4747 16.048 16.6533 16.048 15.608C16.048 14.584 15.7493 13.7947 15.152 13.24C14.5547 12.664 13.648 12.376 12.432 12.376H8.688V18.936ZM29.188 12.28V17.88H36.708V21.432H29.188V27.352H37.668V31H24.708V8.632H37.668V12.28H29.188ZM40.6513 19.8C40.6513 17.6027 41.1419 15.64 42.1233 13.912C43.1259 12.1627 44.4806 10.808 46.1873 9.848C47.9153 8.86667 49.8459 8.376 51.9793 8.376C54.4753 8.376 56.6619 9.016 58.5393 10.296C60.4166 11.576 61.7286 13.3467 62.4753 15.608H57.3233C56.8113 14.5413 56.0859 13.7413 55.1473 13.208C54.2299 12.6747 53.1633 12.408 51.9473 12.408C50.6459 12.408 49.4833 12.7173 48.4593 13.336C47.4566 13.9333 46.6673 14.7867 46.0913 15.896C45.5366 17.0053 45.2593 18.3067 45.2593 19.8C45.2593 21.272 45.5366 22.5733 46.0913 23.704C46.6673 24.8133 47.4566 25.6773 48.4593 26.296C49.4833 26.8933 50.6459 27.192 51.9473 27.192C53.1633 27.192 54.2299 26.9253 55.1473 26.392C56.0859 25.8373 56.8113 25.0267 57.3233 23.96H62.4753C61.7286 26.2427 60.4166 28.024 58.5393 29.304C56.6833 30.5627 54.4966 31.192 51.9793 31.192C49.8459 31.192 47.9153 30.712 46.1873 29.752C44.4806 28.7707 43.1259 27.416 42.1233 25.688C41.1419 23.96 40.6513 21.9973 40.6513 19.8ZM79.9978 26.744H71.1018L69.6298 31H64.9258L72.9578 8.632H78.1738L86.2058 31H81.4698L79.9978 26.744ZM78.7818 23.16L75.5498 13.816L72.3177 23.16H78.7818ZM96.92 31.224C95.3627 31.224 93.9547 30.9573 92.696 30.424C91.4587 29.8907 90.4773 29.1227 89.752 28.12C89.0267 27.1173 88.6533 25.9333 88.632 24.568H93.432C93.496 25.4853 93.816 26.2107 94.392 26.744C94.9893 27.2773 95.8 27.544 96.824 27.544C97.8693 27.544 98.6907 27.2987 99.288 26.808C99.8853 26.296 100.184 25.6347 100.184 24.824C100.184 24.1627 99.9813 23.6187 99.576 23.192C99.1707 22.7653 98.6587 22.4347 98.04 22.2C97.4427 21.944 96.6107 21.6667 95.544 21.368C94.0933 20.9413 92.9093 20.5253 91.992 20.12C91.096 19.6933 90.3173 19.064 89.656 18.232C89.016 17.3787 88.696 16.248 88.696 14.84C88.696 13.5173 89.0267 12.3653 89.688 11.384C90.3493 10.4027 91.2773 9.656 92.472 9.144C93.6667 8.61067 95.032 8.344 96.568 8.344C98.872 8.344 100.739 8.90933 102.168 10.04C103.619 11.1493 104.419 12.7067 104.568 14.712H99.64C99.5973 13.944 99.2667 13.3147 98.648 12.824C98.0507 12.312 97.2507 12.056 96.248 12.056C95.3733 12.056 94.6693 12.28 94.136 12.728C93.624 13.176 93.368 13.8267 93.368 14.68C93.368 15.2773 93.56 15.7787 93.944 16.184C94.3493 16.568 94.84 16.888 95.416 17.144C96.0133 17.3787 96.8453 17.656 97.912 17.976C99.3627 18.4027 100.547 18.8293 101.464 19.256C102.381 19.6827 103.171 20.3227 103.832 21.176C104.493 22.0293 104.824 23.1493 104.824 24.536C104.824 25.7307 104.515 26.84 103.896 27.864C103.277 28.888 102.371 29.7093 101.176 30.328C99.9813 30.9253 98.5627 31.224 96.92 31.224ZM119.076 31.224C116.985 31.224 115.065 30.7333 113.316 29.752C111.567 28.7707 110.18 27.416 109.156 25.688C108.132 23.9387 107.62 21.9653 107.62 19.768C107.62 17.592 108.132 15.64 109.156 13.912C110.18 12.1627 111.567 10.7973 113.316 9.816C115.065 8.83467 116.985 8.344 119.076 8.344C121.188 8.344 123.108 8.83467 124.836 9.816C126.585 10.7973 127.961 12.1627 128.964 13.912C129.988 15.64 130.5 17.592 130.5 19.768C130.5 21.9653 129.988 23.9387 128.964 25.688C127.961 27.416 126.585 28.7707 124.836 29.752C123.087 30.7333 121.167 31.224 119.076 31.224ZM119.076 27.224C120.42 27.224 121.604 26.9253 122.628 26.328C123.652 25.7093 124.452 24.8347 125.028 23.704C125.604 22.5733 125.892 21.2613 125.892 19.768C125.892 18.2747 125.604 16.9733 125.028 15.864C124.452 14.7333 123.652 13.8693 122.628 13.272C121.604 12.6747 120.42 12.376 119.076 12.376C117.732 12.376 116.537 12.6747 115.492 13.272C114.468 13.8693 113.668 14.7333 113.092 15.864C112.516 16.9733 112.228 18.2747 112.228 19.768C112.228 21.2613 112.516 22.5733 113.092 23.704C113.668 24.8347 114.468 25.7093 115.492 26.328C116.537 26.9253 117.732 27.224 119.076 27.224ZM147.625 8.664V12.28H138.313V18.008H145.449V21.56H138.313V31H133.833V8.664H147.625ZM166.002 8.664V12.28H160.05V31H155.57V12.28H149.618V8.664H166.002ZM190.592 26.744H181.696L180.224 31H175.52L183.552 8.632H188.768L196.8 31H192.064L190.592 26.744ZM189.376 23.16L186.144 13.816L182.911 23.16H189.376ZM207.514 31.224C205.956 31.224 204.548 30.9573 203.29 30.424C202.052 29.8907 201.071 29.1227 200.346 28.12C199.62 27.1173 199.247 25.9333 199.226 24.568H204.026C204.09 25.4853 204.41 26.2107 204.986 26.744C205.583 27.2773 206.394 27.544 207.418 27.544C208.463 27.544 209.284 27.2987 209.882 26.808C210.479 26.296 210.778 25.6347 210.778 24.824C210.778 24.1627 210.575 23.6187 210.17 23.192C209.764 22.7653 209.252 22.4347 208.634 22.2C208.036 21.944 207.204 21.6667 206.138 21.368C204.687 20.9413 203.503 20.5253 202.586 20.12C201.69 19.6933 200.911 19.064 200.25 18.232C199.61 17.3787 199.29 16.248 199.29 14.84C199.29 13.5173 199.62 12.3653 200.282 11.384C200.943 10.4027 201.871 9.656 203.066 9.144C204.26 8.61067 205.626 8.344 207.162 8.344C209.466 8.344 211.332 8.90933 212.762 10.04C214.212 11.1493 215.012 12.7067 215.162 14.712H210.234C210.191 13.944 209.86 13.3147 209.242 12.824C208.644 12.312 207.844 12.056 206.842 12.056C205.967 12.056 205.263 12.28 204.73 12.728C204.218 13.176 203.962 13.8267 203.962 14.68C203.962 15.2773 204.154 15.7787 204.538 16.184C204.943 16.568 205.434 16.888 206.01 17.144C206.607 17.3787 207.439 17.656 208.506 17.976C209.956 18.4027 211.14 18.8293 212.058 19.256C212.975 19.6827 213.764 20.3227 214.426 21.176C215.087 22.0293 215.418 23.1493 215.418 24.536C215.418 25.7307 215.108 26.84 214.49 27.864C213.871 28.888 212.964 29.7093 211.77 30.328C210.575 30.9253 209.156 31.224 207.514 31.224Z" fill="black"/>
</g>
<defs>
<clipPath id="clip0_976_8">
<rect width="220" height="39.2857" fill="white"/>
</clipPath>
</defs>
</svg>
